<?xml version="1.0" encoding="iso-8859-1"?>
<!-- Uploaded to: SVG Repo, www.svgrepo.com, Generator: SVG Repo Mixer Tools -->
<svg fill="#000000" height="800px" width="800px" version="1.1" id="Layer_1" xmlns="http://www.w3.org/2000/svg" xmlns:xlink="http://www.w3.org/1999/xlink" 
	 viewBox="0 0 512.005 512.005" xml:space="preserve">
<g>
	<g>
		<path d="M405.336,42.671h-93.482l5.896-11.793c5.269-10.538,0.998-23.353-9.541-28.622s-23.353-0.998-28.622,9.541l-15.437,30.874
			h-16.297l-15.437-30.874c-5.269-10.538-18.083-14.81-28.622-9.541s-14.81,18.083-9.541,28.622l5.896,11.793h-93.482
			c-35.355,0-64,28.645-64,64v64v256v21.333c0,35.355,28.645,64,64,64h298.667c35.355,0,64-28.645,64-64v-21.333v-256v-64
			C469.336,71.316,440.691,42.671,405.336,42.671z M106.669,85.338h114.815l15.437,30.874c0.072,0.143,0.159,0.272,0.233,0.413
			c0.189,0.359,0.389,0.712,0.599,1.061c0.159,0.264,0.32,0.523,0.489,0.778c0.214,0.323,0.438,0.637,0.67,0.949
			c0.193,0.26,0.389,0.517,0.592,0.766c0.23,0.281,0.47,0.553,0.715,0.823c0.231,0.255,0.463,0.506,0.705,0.747
			c0.241,0.241,0.492,0.474,0.747,0.704c0.27,0.245,0.542,0.486,0.824,0.716c0.249,0.203,0.506,0.398,0.765,0.592
			c0.312,0.232,0.626,0.457,0.949,0.67c0.254,0.169,0.514,0.33,0.778,0.489c0.349,0.21,0.702,0.41,1.061,0.599
			c0.141,0.074,0.27,0.162,0.413,0.233c0.135,0.068,0.275,0.115,0.41,0.18c0.35,0.166,0.704,0.319,1.062,0.466
			c0.314,0.129,0.629,0.253,0.946,0.366c0.316,0.112,0.636,0.212,0.957,0.309c0.36,0.109,0.72,0.215,1.083,0.304
			c0.293,0.072,0.589,0.131,0.885,0.191c0.384,0.077,0.768,0.152,1.154,0.208c0.302,0.044,0.605,0.072,0.909,0.103
			c0.374,0.038,0.747,0.075,1.121,0.092c0.337,0.016,0.675,0.015,1.014,0.015c0.339,0,0.676,0.001,1.014-0.015
			c0.374-0.018,0.747-0.055,1.121-0.092c0.304-0.031,0.607-0.059,0.909-0.103c0.386-0.056,0.769-0.131,1.154-0.208
			c0.296-0.06,0.592-0.118,0.885-0.191c0.363-0.089,0.723-0.195,1.083-0.304c0.321-0.097,0.641-0.197,0.957-0.309
			c0.317-0.113,0.632-0.237,0.946-0.366c0.358-0.146,0.712-0.3,1.062-0.466c0.136-0.064,0.275-0.112,0.41-0.18
			c0.143-0.072,0.272-0.159,0.413-0.233c0.359-0.189,0.712-0.389,1.061-0.599c0.264-0.159,0.523-0.32,0.778-0.489
			c0.323-0.214,0.637-0.439,0.949-0.67c0.26-0.193,0.516-0.388,0.765-0.592c0.281-0.23,0.554-0.471,0.824-0.716
			c0.254-0.231,0.505-0.463,0.747-0.704c0.242-0.242,0.474-0.493,0.705-0.747c0.245-0.27,0.485-0.542,0.715-0.823
			c0.204-0.249,0.399-0.506,0.592-0.766c0.232-0.311,0.456-0.626,0.67-0.949c0.169-0.254,0.33-0.514,0.489-0.778
			c0.21-0.349,0.41-0.702,0.599-1.061c0.074-0.141,0.162-0.27,0.233-0.413l15.437-30.874h114.815
			c11.791,0,21.333,9.542,21.333,21.333v42.667H85.336v-42.667C85.336,94.88,94.878,85.338,106.669,85.338z M426.669,405.338
			h-67.271c-6.293-20.019-21.266-36.834-41.27-48.197c14.38-15.274,23.208-35.834,23.208-58.469
			c0-47.131-38.202-85.333-85.333-85.333s-85.333,38.202-85.333,85.333c0,22.635,8.828,43.196,23.208,58.469
			c-20.004,11.364-34.977,28.178-41.27,48.197H85.336V192.005h341.333V405.338z M213.336,298.671
			c0-23.567,19.099-42.667,42.667-42.667s42.667,19.099,42.667,42.667s-19.099,42.667-42.667,42.667
			S213.336,322.239,213.336,298.671z M256.002,384.005c23.994,0,44.124,8.944,55.085,21.333H200.918
			C211.879,392.948,232.009,384.005,256.002,384.005z M405.336,469.338H106.669c-11.791,0-21.333-9.542-21.333-21.333h85.333
			h170.667h85.333C426.669,459.796,417.127,469.338,405.336,469.338z"/>
	</g>
</g>
</svg>